<svg width="155" height="51" viewBox="0 0 155 51" fill="none" xmlns="http://www.w3.org/2000/svg">
<rect x="0.5" y="0.480957" width="154.5" height="50.0135" rx="12.009" fill="#C6D4F1"/>
<path d="M40.1742 26.531C40.1742 26.6366 40.0159 29.7502 43.4462 31.3862C42.8129 33.3388 40.5964 37.6663 38.0105 37.6663C36.5328 37.6663 35.6884 36.7164 33.9997 36.7164C32.2581 36.7164 31.3082 37.6663 29.9889 37.6663C27.4557 37.7719 25.0281 33.0222 24.3421 31.0696C23.8143 29.5919 23.6032 28.167 23.6032 26.7949C23.6032 22.098 26.7169 19.8287 29.6722 19.776C31.0971 19.776 32.8914 20.7787 33.683 20.7787C34.4219 20.7787 36.4801 19.5649 38.3799 19.7232C40.3325 19.8815 41.8102 20.6203 42.8129 22.0452C41.0714 23.1535 40.1742 24.5784 40.1742 26.531ZM37.2189 17.8761C36.1634 19.0899 34.8968 19.776 33.5247 19.6704C33.4192 18.2455 33.9469 16.9262 34.8968 15.8707C35.7412 14.9208 37.2189 14.1292 38.4855 14.0236C38.4855 14.6041 38.6438 16.1873 37.2189 17.8761Z" fill="#254EDB"/>
<g clip-path="url(#clip0_390_5749)">
<path d="M55.8899 12.1921C56.5864 12.1921 57.1839 12.3182 57.6823 12.5704C58.1806 12.8226 58.5619 13.1858 58.8261 13.6602C59.0903 14.1345 59.2224 14.699 59.2224 15.3534C59.2224 16.0019 59.0903 16.5634 58.8261 17.0377C58.5619 17.5061 58.1806 17.8663 57.6823 18.1185C57.1839 18.3647 56.5864 18.4878 55.8899 18.4878H54.0255V12.1921H55.8899ZM55.8899 17.9654C56.7666 17.9654 57.4331 17.7372 57.8894 17.2809C58.3518 16.8185 58.5829 16.1761 58.5829 15.3534C58.5829 14.5248 58.3518 13.8793 57.8894 13.417C57.4331 12.9486 56.7666 12.7145 55.8899 12.7145H54.656V17.9654H55.8899ZM62.5374 18.5598C62.075 18.5598 61.6577 18.4578 61.2854 18.2536C60.9192 18.0435 60.6279 17.7492 60.4118 17.371C60.2016 16.9867 60.0965 16.5393 60.0965 16.029C60.0965 15.5186 60.2046 15.0742 60.4208 14.696C60.637 14.3117 60.9312 14.0174 61.3035 13.8133C61.6757 13.6031 62.093 13.4981 62.5554 13.4981C63.0177 13.4981 63.435 13.6031 63.8073 13.8133C64.1856 14.0174 64.4798 14.3117 64.69 14.696C64.9061 15.0742 65.0142 15.5186 65.0142 16.029C65.0142 16.5333 64.9061 16.9777 64.69 17.362C64.4738 17.7462 64.1766 18.0435 63.7983 18.2536C63.42 18.4578 62.9997 18.5598 62.5374 18.5598ZM62.5374 18.0104C62.8616 18.0104 63.1618 17.9384 63.4381 17.7943C63.7143 17.6442 63.9364 17.422 64.1045 17.1278C64.2787 16.8276 64.3657 16.4613 64.3657 16.029C64.3657 15.5966 64.2817 15.2334 64.1136 14.9391C63.9454 14.6389 63.7233 14.4167 63.4471 14.2726C63.1709 14.1225 62.8706 14.0475 62.5464 14.0475C62.2221 14.0475 61.9219 14.1225 61.6457 14.2726C61.3695 14.4167 61.1473 14.6389 60.9792 14.9391C60.8171 15.2334 60.736 15.5966 60.736 16.029C60.736 16.4613 60.8171 16.8276 60.9792 17.1278C61.1473 17.422 61.3665 17.6442 61.6367 17.7943C61.9129 17.9384 62.2131 18.0104 62.5374 18.0104ZM72.6484 13.5701L71.1082 18.4878H70.4777L69.1177 14.3627L67.7577 18.4878H67.1182L65.5781 13.5701H66.2175L67.4425 17.8483L68.8205 13.5701H69.451L70.811 17.8573L72.0269 13.5701H72.6484ZM75.8136 13.48C76.402 13.48 76.8824 13.6632 77.2547 14.0295C77.627 14.3897 77.8131 14.9151 77.8131 15.6056V18.4878H77.1916V15.6777C77.1916 15.1433 77.0565 14.735 76.7863 14.4528C76.5221 14.1706 76.1589 14.0295 75.6965 14.0295C75.2222 14.0295 74.8439 14.1796 74.5617 14.4798C74.2794 14.78 74.1383 15.2213 74.1383 15.8038V18.4878H73.5079V13.5701H74.1383V14.4077C74.2945 14.1075 74.5196 13.8793 74.8138 13.7232C75.1081 13.5611 75.4413 13.48 75.8136 13.48ZM79.8379 11.8228V18.4878H79.2074V11.8228H79.8379ZM83.4182 18.5598C82.9559 18.5598 82.5386 18.4578 82.1663 18.2536C81.8 18.0435 81.5088 17.7492 81.2926 17.371C81.0825 16.9867 80.9774 16.5393 80.9774 16.029C80.9774 15.5186 81.0855 15.0742 81.3017 14.696C81.5178 14.3117 81.812 14.0174 82.1843 13.8133C82.5566 13.6031 82.9739 13.4981 83.4363 13.4981C83.8986 13.4981 84.3159 13.6031 84.6882 13.8133C85.0665 14.0174 85.3607 14.3117 85.5709 14.696C85.787 15.0742 85.8951 15.5186 85.8951 16.029C85.8951 16.5333 85.787 16.9777 85.5709 17.362C85.3547 17.7462 85.0575 18.0435 84.6792 18.2536C84.3009 18.4578 83.8806 18.5598 83.4182 18.5598ZM83.4182 18.0104C83.7425 18.0104 84.0427 17.9384 84.3189 17.7943C84.5951 17.6442 84.8173 17.422 84.9854 17.1278C85.1595 16.8276 85.2466 16.4613 85.2466 16.029C85.2466 15.5966 85.1625 15.2334 84.9944 14.9391C84.8263 14.6389 84.6041 14.4167 84.3279 14.2726C84.0517 14.1225 83.7515 14.0475 83.4272 14.0475C83.103 14.0475 82.8028 14.1225 82.5266 14.2726C82.2504 14.4167 82.0282 14.6389 81.8601 14.9391C81.698 15.2334 81.6169 15.5966 81.6169 16.029C81.6169 16.4613 81.698 16.8276 81.8601 17.1278C82.0282 17.422 82.2474 17.6442 82.5176 17.7943C82.7938 17.9384 83.094 18.0104 83.4182 18.0104ZM86.7562 16.0199C86.7562 15.5156 86.8552 15.0742 87.0534 14.696C87.2575 14.3117 87.5367 14.0174 87.891 13.8133C88.2513 13.6031 88.6566 13.4981 89.1069 13.4981C89.5753 13.4981 89.9776 13.6061 90.3138 13.8223C90.6561 14.0385 90.9023 14.3147 91.0524 14.6509V13.5701H91.6828V18.4878H91.0524V17.398C90.8963 17.7342 90.6471 18.0134 90.3048 18.2356C89.9686 18.4518 89.5663 18.5598 89.0979 18.5598C88.6536 18.5598 88.2513 18.4548 87.891 18.2446C87.5367 18.0345 87.2575 17.7372 87.0534 17.3529C86.8552 16.9687 86.7562 16.5243 86.7562 16.0199ZM91.0524 16.029C91.0524 15.6327 90.9713 15.2844 90.8092 14.9842C90.6471 14.6839 90.4249 14.4528 90.1427 14.2907C89.8665 14.1285 89.5603 14.0475 89.224 14.0475C88.8757 14.0475 88.5635 14.1255 88.2873 14.2816C88.0111 14.4378 87.7919 14.6659 87.6298 14.9662C87.4737 15.2604 87.3956 15.6116 87.3956 16.0199C87.3956 16.4222 87.4737 16.7765 87.6298 17.0827C87.7919 17.383 88.0111 17.6141 88.2873 17.7763C88.5635 17.9324 88.8757 18.0104 89.224 18.0104C89.5603 18.0104 89.8665 17.9294 90.1427 17.7673C90.4249 17.6051 90.6471 17.374 90.8092 17.0737C90.9713 16.7735 91.0524 16.4252 91.0524 16.029ZM92.8339 16.0199C92.8339 15.5156 92.936 15.0742 93.1402 14.696C93.3443 14.3117 93.6235 14.0174 93.9778 13.8133C94.3381 13.6031 94.7434 13.4981 95.1937 13.4981C95.626 13.4981 96.0163 13.6031 96.3646 13.8133C96.7128 14.0235 96.968 14.2967 97.1302 14.6329V11.8228H97.7606V18.4878H97.1302V17.389C96.98 17.7312 96.7339 18.0134 96.3916 18.2356C96.0493 18.4518 95.647 18.5598 95.1847 18.5598C94.7344 18.5598 94.3291 18.4548 93.9688 18.2446C93.6145 18.0345 93.3353 17.7372 93.1312 17.3529C92.933 16.9687 92.8339 16.5243 92.8339 16.0199ZM97.1302 16.029C97.1302 15.6327 97.0491 15.2844 96.887 14.9842C96.7249 14.6839 96.5027 14.4528 96.2205 14.2907C95.9443 14.1285 95.638 14.0475 95.3018 14.0475C94.9535 14.0475 94.6413 14.1255 94.3651 14.2816C94.0889 14.4378 93.8697 14.6659 93.7076 14.9662C93.5515 15.2604 93.4734 15.6116 93.4734 16.0199C93.4734 16.4222 93.5515 16.7765 93.7076 17.0827C93.8697 17.383 94.0889 17.6141 94.3651 17.7763C94.6413 17.9324 94.9535 18.0104 95.3018 18.0104C95.638 18.0104 95.9443 17.9294 96.2205 17.7673C96.5027 17.6051 96.7249 17.374 96.887 17.0737C97.0491 16.7735 97.1302 16.4252 97.1302 16.029ZM103.977 13.48C104.566 13.48 105.046 13.6632 105.418 14.0295C105.791 14.3897 105.977 14.9151 105.977 15.6056V18.4878H105.355V15.6777C105.355 15.1433 105.22 14.735 104.95 14.4528C104.686 14.1706 104.323 14.0295 103.86 14.0295C103.386 14.0295 103.008 14.1796 102.725 14.4798C102.443 14.78 102.302 15.2213 102.302 15.8038V18.4878H101.672V13.5701H102.302V14.4077C102.458 14.1075 102.683 13.8793 102.978 13.7232C103.272 13.5611 103.605 13.48 103.977 13.48ZM109.524 18.5598C109.061 18.5598 108.644 18.4578 108.272 18.2536C107.906 18.0435 107.614 17.7492 107.398 17.371C107.188 16.9867 107.083 16.5393 107.083 16.029C107.083 15.5186 107.191 15.0742 107.407 14.696C107.623 14.3117 107.918 14.0174 108.29 13.8133C108.662 13.6031 109.079 13.4981 109.542 13.4981C110.004 13.4981 110.421 13.6031 110.794 13.8133C111.172 14.0174 111.466 14.3117 111.676 14.696C111.892 15.0742 112.001 15.5186 112.001 16.029C112.001 16.5333 111.892 16.9777 111.676 17.362C111.46 17.7462 111.163 18.0435 110.785 18.2536C110.406 18.4578 109.986 18.5598 109.524 18.5598ZM109.524 18.0104C109.848 18.0104 110.148 17.9384 110.424 17.7943C110.701 17.6442 110.923 17.422 111.091 17.1278C111.265 16.8276 111.352 16.4613 111.352 16.029C111.352 15.5966 111.268 15.2334 111.1 14.9391C110.932 14.6389 110.71 14.4167 110.433 14.2726C110.157 14.1225 109.857 14.0475 109.533 14.0475C109.208 14.0475 108.908 14.1225 108.632 14.2726C108.356 14.4167 108.134 14.6389 107.966 14.9391C107.803 15.2334 107.722 15.5966 107.722 16.029C107.722 16.4613 107.803 16.8276 107.966 17.1278C108.134 17.422 108.353 17.6442 108.623 17.7943C108.899 17.9384 109.199 18.0104 109.524 18.0104ZM119.635 13.5701L118.095 18.4878H117.464L116.104 14.3627L114.744 18.4878H114.105L112.564 13.5701H113.204L114.429 17.8483L115.807 13.5701H116.437L117.797 17.8573L119.013 13.5701H119.635Z" fill="#254EDB"/>
<path d="M59.7083 34.3937H55.6012L54.8446 36.4878H53.5477L56.9522 27.1253H58.3708L61.7618 36.4878H60.4648L59.7083 34.3937ZM59.357 33.394L57.6547 28.6384L55.9525 33.394H59.357ZM64.475 30.4488C64.7182 30.0255 65.0785 29.6742 65.5558 29.395C66.0422 29.1068 66.6051 28.9627 67.2446 28.9627C67.9021 28.9627 68.4965 29.1203 69.0279 29.4355C69.5683 29.7508 69.9917 30.1966 70.2979 30.773C70.6041 31.3404 70.7572 32.0024 70.7572 32.759C70.7572 33.5066 70.6041 34.1731 70.2979 34.7585C69.9917 35.3439 69.5683 35.7988 69.0279 36.123C68.4965 36.4473 67.9021 36.6094 67.2446 36.6094C66.6141 36.6094 66.0557 36.4698 65.5693 36.1906C65.092 35.9024 64.7272 35.5466 64.475 35.1233V40.0004H63.2456V29.0843H64.475V30.4488ZM69.5008 32.759C69.5008 32.2006 69.3882 31.7142 69.163 31.2999C68.9379 30.8856 68.6316 30.5704 68.2443 30.3542C67.8661 30.138 67.4472 30.03 66.9879 30.03C66.5376 30.03 66.1188 30.1425 65.7315 30.3677C65.3532 30.5839 65.047 30.9036 64.8128 31.3269C64.5876 31.7412 64.475 32.2231 64.475 32.7725C64.475 33.3309 64.5876 33.8218 64.8128 34.2451C65.047 34.6594 65.3532 34.9792 65.7315 35.2043C66.1188 35.4205 66.5376 35.5286 66.9879 35.5286C67.4472 35.5286 67.8661 35.4205 68.2443 35.2043C68.6316 34.9792 68.9379 34.6594 69.163 34.2451C69.3882 33.8218 69.5008 33.3264 69.5008 32.759ZM73.6049 30.4488C73.8481 30.0255 74.2084 29.6742 74.6857 29.395C75.1721 29.1068 75.735 28.9627 76.3745 28.9627C77.032 28.9627 77.6264 29.1203 78.1578 29.4355C78.6982 29.7508 79.1215 30.1966 79.4278 30.773C79.734 31.3404 79.8871 32.0024 79.8871 32.759C79.8871 33.5066 79.734 34.1731 79.4278 34.7585C79.1215 35.3439 78.6982 35.7988 78.1578 36.123C77.6264 36.4473 77.032 36.6094 76.3745 36.6094C75.744 36.6094 75.1856 36.4698 74.6992 36.1906C74.2219 35.9024 73.8571 35.5466 73.6049 35.1233V40.0004H72.3755V29.0843H73.6049V30.4488ZM78.6307 32.759C78.6307 32.2006 78.5181 31.7142 78.2929 31.2999C78.0677 30.8856 77.7615 30.5704 77.3742 30.3542C76.9959 30.138 76.5771 30.03 76.1178 30.03C75.6674 30.03 75.2486 30.1425 74.8613 30.3677C74.4831 30.5839 74.1768 30.9036 73.9427 31.3269C73.7175 31.7412 73.6049 32.2231 73.6049 32.7725C73.6049 33.3309 73.7175 33.8218 73.9427 34.2451C74.1768 34.6594 74.4831 34.9792 74.8613 35.2043C75.2486 35.4205 75.6674 35.5286 76.1178 35.5286C76.5771 35.5286 76.9959 35.4205 77.3742 35.2043C77.7615 34.9792 78.0677 34.6594 78.2929 34.2451C78.5181 33.8218 78.6307 33.3264 78.6307 32.759ZM88.0929 36.5824C87.4714 36.5824 86.913 36.4743 86.4177 36.2581C85.9313 36.033 85.5485 35.7267 85.2693 35.3394C84.9901 34.9431 84.846 34.4883 84.837 33.9749H86.1475C86.1925 34.4162 86.3726 34.79 86.6879 35.0963C87.0121 35.3935 87.4805 35.5421 88.0929 35.5421C88.6784 35.5421 89.1377 35.398 89.4709 35.1098C89.8132 34.8125 89.9843 34.4343 89.9843 33.9749C89.9843 33.6146 89.8853 33.3219 89.6871 33.0968C89.489 32.8716 89.2413 32.7005 88.9441 32.5834C88.6468 32.4663 88.246 32.3402 87.7417 32.2051C87.1202 32.043 86.6203 31.8808 86.242 31.7187C85.8728 31.5566 85.553 31.3044 85.2828 30.9622C85.0216 30.6109 84.891 30.1425 84.891 29.5571C84.891 29.0437 85.0216 28.5889 85.2828 28.1926C85.544 27.7963 85.9088 27.4901 86.3771 27.2739C86.8545 27.0577 87.3994 26.9497 88.0119 26.9497C88.8945 26.9497 89.6151 27.1703 90.1735 27.6116C90.7409 28.053 91.0606 28.6384 91.1327 29.368H89.7817C89.7366 29.0077 89.5475 28.6925 89.2143 28.4223C88.881 28.143 88.4397 28.0034 87.8903 28.0034C87.3769 28.0034 86.9581 28.1385 86.6338 28.4087C86.3096 28.6699 86.1475 29.0392 86.1475 29.5166C86.1475 29.8588 86.242 30.138 86.4312 30.3542C86.6293 30.5704 86.868 30.737 87.1472 30.8541C87.4354 30.9622 87.8362 31.0883 88.3496 31.2324C88.9711 31.4035 89.4709 31.5746 89.8492 31.7457C90.2275 31.9079 90.5518 32.1646 90.822 32.5158C91.0922 32.8581 91.2273 33.3264 91.2273 33.9209C91.2273 34.3802 91.1057 34.8125 90.8625 35.2178C90.6193 35.6231 90.259 35.9519 89.7817 36.2041C89.3043 36.4563 88.7414 36.5824 88.0929 36.5824ZM94.5361 30.0975V34.4613C94.5361 34.8215 94.6126 35.0782 94.7657 35.2314C94.9189 35.3755 95.1846 35.4475 95.5628 35.4475H96.468V36.4878H95.3602C94.6757 36.4878 94.1623 36.3302 93.82 36.0149C93.4778 35.6997 93.3067 35.1818 93.3067 34.4613V30.0975H92.3474V29.0843H93.3067V27.2199H94.5361V29.0843H96.468V30.0975H94.5361ZM101.187 36.6094C100.493 36.6094 99.8625 36.4518 99.2951 36.1365C98.7367 35.8213 98.2954 35.3755 97.9711 34.799C97.6559 34.2136 97.4983 33.5381 97.4983 32.7725C97.4983 32.0159 97.6604 31.3494 97.9846 30.773C98.3179 30.1876 98.7682 29.7417 99.3356 29.4355C99.9031 29.1203 100.538 28.9627 101.241 28.9627C101.943 28.9627 102.578 29.1203 103.146 29.4355C103.713 29.7417 104.159 30.1831 104.483 30.7595C104.816 31.3359 104.983 32.0069 104.983 32.7725C104.983 33.5381 104.812 34.2136 104.469 34.799C104.136 35.3755 103.681 35.8213 103.105 36.1365C102.529 36.4518 101.889 36.6094 101.187 36.6094ZM101.187 35.5286C101.628 35.5286 102.042 35.425 102.429 35.2178C102.817 35.0107 103.127 34.7 103.362 34.2856C103.605 33.8713 103.726 33.367 103.726 32.7725C103.726 32.1781 103.609 31.6737 103.375 31.2594C103.141 30.8451 102.835 30.5388 102.456 30.3407C102.078 30.1335 101.668 30.03 101.227 30.03C100.777 30.03 100.362 30.1335 99.9841 30.3407C99.6149 30.5388 99.3176 30.8451 99.0925 31.2594C98.8673 31.6737 98.7547 32.1781 98.7547 32.7725C98.7547 33.376 98.8628 33.8848 99.079 34.2992C99.3041 34.7135 99.6013 35.0242 99.9706 35.2314C100.34 35.4295 100.745 35.5286 101.187 35.5286ZM107.829 30.2867C108.045 29.8633 108.351 29.5346 108.747 29.3004C109.153 29.0662 109.644 28.9492 110.22 28.9492V30.2191H109.896C108.518 30.2191 107.829 30.9667 107.829 32.4618V36.4878H106.599V29.0843H107.829V30.2867ZM118.394 32.5023C118.394 32.7365 118.381 32.9842 118.354 33.2454H112.436C112.481 33.9749 112.729 34.5468 113.179 34.9612C113.639 35.3665 114.193 35.5691 114.841 35.5691C115.373 35.5691 115.814 35.4475 116.165 35.2043C116.525 34.9521 116.778 34.6189 116.922 34.2046H118.246C118.048 34.9161 117.651 35.4971 117.057 35.9474C116.462 36.3887 115.724 36.6094 114.841 36.6094C114.139 36.6094 113.508 36.4518 112.95 36.1365C112.4 35.8213 111.968 35.3755 111.653 34.799C111.338 34.2136 111.18 33.5381 111.18 32.7725C111.18 32.0069 111.333 31.3359 111.639 30.7595C111.945 30.1831 112.373 29.7417 112.923 29.4355C113.481 29.1203 114.121 28.9627 114.841 28.9627C115.544 28.9627 116.165 29.1158 116.706 29.422C117.246 29.7282 117.66 30.1516 117.948 30.692C118.246 31.2234 118.394 31.8268 118.394 32.5023ZM117.124 32.2456C117.124 31.7773 117.021 31.3765 116.814 31.0432C116.606 30.701 116.323 30.4443 115.962 30.2731C115.611 30.093 115.219 30.0029 114.787 30.0029C114.166 30.0029 113.634 30.2011 113.193 30.5974C112.761 30.9937 112.513 31.5431 112.45 32.2456H117.124Z" fill="#254EDB"/>
</g>
<defs>
<clipPath id="clip0_390_5749">
<rect width="66.0494" height="32" fill="white" transform="translate(53.0393 9.48779)"/>
</clipPath>
</defs>
</svg>
