<svg width="206" height="48" viewBox="0 0 206 48" fill="none" xmlns="http://www.w3.org/2000/svg">
<path d="M14.8822 44.4809C9.81704 40.7665 1.20635 23.7139 5.25843 16.1163C7.3138 12.2624 11.4543 12.7961 15.8952 14.8747M28.0515 22.7009C24.8068 20.3714 20.2093 16.894 15.8952 14.8747M15.8952 14.8747C19.6096 16.3016 22.9863 17.6357 31.0905 8.01209C39.1947 -1.61151 47.8054 8.01216 46.7924 16.6228C46.6236 22.1944 45.1716 35.3638 40.7143 43.468" stroke="white" stroke-width="6.97316" stroke-linecap="round"/>
<path d="M69.2889 17.0116C69.0677 17.0116 68.8623 16.9748 68.678 16.9063C68.4937 16.8326 68.3358 16.7325 68.2041 16.6009C68.0725 16.4692 67.9724 16.3113 67.8987 16.127C67.8302 15.9427 67.7934 15.7426 67.7934 15.5162V5.49545C67.7934 5.27429 67.8302 5.06891 67.8987 4.88461C67.9724 4.70031 68.0725 4.54765 68.2041 4.41074C68.3358 4.2791 68.4937 4.17901 68.678 4.10529C68.8623 4.03157 69.0624 4 69.2889 4H80.8787C81.3158 4 81.716 4.05268 82.0794 4.158C82.4427 4.26331 82.7692 4.40546 83.064 4.58976C83.3589 4.77406 83.6117 4.98995 83.8328 5.23744C84.054 5.48493 84.233 5.75876 84.3805 6.04838C84.5279 6.338 84.6385 6.64867 84.7122 6.96988C84.7859 7.29109 84.8228 7.61756 84.8228 7.94403V13.1098C84.8228 13.4362 84.7859 13.7574 84.7175 14.0786C84.6438 14.3998 84.5385 14.7052 84.3963 14.9896C84.2541 15.2792 84.0698 15.5478 83.8539 15.7953C83.638 16.0428 83.38 16.2586 83.0904 16.4377C82.7955 16.6167 82.469 16.7589 82.1004 16.859C81.7318 16.959 81.3263 17.0116 80.884 17.0116H69.2941H69.2889ZM82.0635 7.69656C82.0635 7.54385 82.0372 7.39636 81.9845 7.25419C81.9319 7.11201 81.8529 6.98038 81.7529 6.8698C81.6528 6.75395 81.5212 6.66443 81.3685 6.59597C81.2158 6.52752 81.0367 6.49595 80.8366 6.49595H70.5158V14.5315H80.8366C81.0473 14.5315 81.2315 14.4946 81.3842 14.4262C81.5369 14.3577 81.6686 14.2629 81.7687 14.1524C81.8687 14.0418 81.9424 13.9101 81.9898 13.768C82.0372 13.6258 82.0635 13.4783 82.0635 13.3309V7.70183V7.69656Z" fill="white"/>
<path d="M95.4855 14.3947C95.3539 14.3105 95.2433 14.1999 95.159 14.063C95.0748 13.9261 95.0063 13.7734 94.9642 13.5943C94.9221 13.4206 94.901 13.2415 94.901 13.0572C94.901 12.8729 94.9221 12.6939 94.9642 12.5201C95.0063 12.3463 95.0748 12.1884 95.159 12.0515C95.2433 11.9146 95.3539 11.804 95.4855 11.7198C95.6172 11.6355 95.7699 11.5933 95.9436 11.5933H105.633C106.317 11.5933 106.875 11.0352 106.875 10.3506C106.875 9.66607 106.317 9.10791 105.633 9.10791C102.926 9.10791 96.6755 9.10791 95.9067 9.10791C92.9316 9.10791 91.9627 11.5355 91.9627 13.0994C91.9627 14.6633 92.8526 17.0012 95.9015 17.0012H107.318C108.002 17.0012 108.56 16.4431 108.56 15.7585C108.56 15.074 108.002 14.5158 107.318 14.5158H95.9436C95.7699 14.5158 95.6172 14.4737 95.4855 14.3895V14.3947Z" fill="white"/>
<path d="M91.9628 5.24271C91.9628 5.92725 92.5157 6.48541 93.2055 6.48541H107.349C108.034 6.48541 108.592 5.93252 108.592 5.24271C108.592 4.55816 108.039 4 107.349 4H93.2055C92.5209 4 91.9628 4.55289 91.9628 5.24271Z" fill="white"/>
<path d="M131.013 4.00241C130.26 4.00241 129.655 4.61321 129.655 5.36095V14.3074H128.575C128.238 14.3022 127.791 14.0494 127.617 13.8599C126.021 12.1116 121.572 7.25662 119.155 4.57636C118.96 4.36046 118.37 3.96555 117.564 4.00241C117.328 4.01294 117.096 4.03925 116.875 4.11297C116.653 4.18669 116.459 4.29727 116.29 4.44471C116.122 4.59215 115.985 4.77121 115.885 4.99237C115.785 5.21353 115.732 5.47154 115.732 5.76642V15.6502C115.732 16.4032 116.343 17.0088 117.096 17.0088C117.849 17.0088 118.454 16.398 118.454 15.6502V7.5357L126.543 16.419C127.043 16.8297 127.406 16.9982 127.833 17.0035L130.308 17.0088V16.9877C130.387 16.993 130.466 17.0088 130.545 17.0088C130.782 17.0088 131.013 16.9719 131.234 16.8982C131.455 16.8245 131.65 16.7139 131.819 16.5664C131.987 16.419 132.124 16.24 132.224 16.0188C132.324 15.7976 132.377 15.5396 132.377 15.2447V5.36095C132.377 4.60795 131.766 4.00241 131.013 4.00241Z" fill="white"/>
<path d="M139.517 5.24271C139.517 4.55816 140.075 4 140.76 4H154.919C155.604 4 156.162 4.55816 156.162 5.24271C156.162 5.92725 155.604 6.48541 154.919 6.48541H149.201V15.6478C149.201 16.4008 148.59 17.0063 147.842 17.0063C147.089 17.0063 146.483 16.3955 146.483 15.6478V6.48541H140.76C140.075 6.48541 139.517 5.92725 139.517 5.24271Z" fill="white"/>
<path d="M176.993 7.66493H177.003L176.145 6.39587L175.108 4.83723C174.734 4.2738 174.365 4.0895 174.002 4.04737C173.891 4.02104 173.77 4 173.644 4H172.659H171.674C171.543 4 171.427 4.02104 171.316 4.04737C170.953 4.08423 170.584 4.2738 170.21 4.83723L169.173 6.39587L168.315 7.66493H168.325L163.533 14.8685C162.928 15.7847 163.581 17.0063 164.676 17.0063C165.139 17.0063 165.571 16.7747 165.824 16.3903L171.622 7.59648C171.643 7.55962 171.669 7.5228 171.68 7.507C171.959 7.08574 172.306 6.85399 172.654 6.85399C173.001 6.85399 173.349 7.08574 173.628 7.507C173.638 7.5228 173.665 7.55961 173.686 7.5912L179.483 16.3903C179.736 16.7747 180.168 17.0063 180.631 17.0063C181.732 17.0063 182.385 15.7847 181.774 14.8685L176.982 7.66493H176.993Z" fill="white"/>
<path d="M191.866 14.5262H204.551C205.235 14.5262 205.793 15.0844 205.793 15.7689C205.793 16.4535 205.235 17.0116 204.551 17.0116H190.644C190.423 17.0116 190.217 16.9748 190.033 16.9063C189.849 16.8326 189.696 16.7325 189.559 16.6009C189.428 16.4692 189.328 16.3113 189.254 16.127C189.18 15.9427 189.148 15.7426 189.148 15.5162V5.35854C189.148 4.6108 189.754 4 190.507 4C191.255 4 191.866 4.60554 191.866 5.35854V14.5209V14.5262Z" fill="white"/>
<path d="M81.695 41.6018C81.358 41.5965 80.9367 41.3175 80.7366 41.1542C80.2258 40.7435 77.6087 38.7162 75.6183 37.1101C77.2928 35.7989 78.7461 34.6721 79.041 34.4351C79.2411 34.2772 79.6623 33.9928 79.9993 33.9876H81.5106C82.2531 33.9876 82.8587 33.382 82.8587 32.6395C82.8587 31.897 82.2531 31.2915 81.5106 31.2915H79.2569C78.8304 31.302 78.467 31.4705 77.9668 31.8813L70.5105 37.4735V32.65C70.5105 31.9023 69.9049 31.2915 69.1519 31.2915C68.4042 31.2915 67.7934 31.897 67.7934 32.65V42.9446C67.7934 43.6923 68.3989 44.3031 69.1519 44.3031C69.8997 44.3031 70.5105 43.6976 70.5105 42.9446V41.1648C71.1846 40.6119 72.1955 39.8062 73.2961 38.9374L79.6624 43.7134C80.1626 44.1241 80.526 44.2926 80.9525 44.2978L83.2062 44.3031C83.9487 44.3031 84.5542 43.6976 84.5542 42.9551C84.5542 42.2127 83.9487 41.6071 83.2062 41.6071H81.695V41.6018Z" fill="white"/>
<path d="M93.0529 31.2915C93.8006 31.2915 94.4114 31.9023 94.4114 32.65V42.9393C94.4114 43.687 93.8006 44.2978 93.0529 44.2978C92.3051 44.2978 91.6943 43.687 91.6943 42.9393V32.65C91.6943 31.9023 92.3051 31.2915 93.0529 31.2915Z" fill="white"/>
<path d="M101.551 32.5342C101.551 31.8497 102.109 31.2915 102.794 31.2915H116.954C117.638 31.2915 118.196 31.8497 118.196 32.5342C118.196 33.2188 117.638 33.7769 116.954 33.7769H111.235V42.9393C111.235 43.6923 110.624 44.2978 109.876 44.2978C109.123 44.2978 108.518 43.687 108.518 42.9393V33.7769H102.794C102.109 33.7769 101.551 33.2188 101.551 32.5342Z" fill="white"/>
</svg>
