<svg width="138" height="106" viewBox="0 0 138 106" fill="none" xmlns="http://www.w3.org/2000/svg">
<path d="M58.3419 44.4809C53.2768 40.7665 44.6661 23.7139 48.7182 16.1163C50.7735 12.2624 54.9141 12.7961 59.3549 14.8747M71.5112 22.7009C68.2665 20.3714 63.669 16.894 59.3549 14.8747M59.3549 14.8747C63.0693 16.3016 66.4461 17.6357 74.5503 8.01209C82.6545 -1.61151 91.2652 8.01216 90.2522 16.6228C90.0833 22.1944 88.6313 35.3638 84.174 43.468" stroke="#2145BF" stroke-width="6.97316" stroke-linecap="round"/>
<path d="M1.49544 78.412C1.27428 78.412 1.06889 78.3752 0.884593 78.3067C0.700292 78.233 0.542371 78.1329 0.410728 78.0013C0.279084 77.8696 0.178994 77.7117 0.105274 77.5274C0.0368192 77.3431 -1.52588e-05 77.143 -1.52588e-05 76.9166V66.8959C-1.52588e-05 66.6747 0.0368192 66.4693 0.105274 66.285C0.178994 66.1007 0.279084 65.9481 0.410728 65.8111C0.542371 65.6795 0.700292 65.5794 0.884593 65.5057C1.06889 65.432 1.26901 65.4004 1.49544 65.4004H13.0853C13.5224 65.4004 13.9226 65.4531 14.2859 65.5584C14.6493 65.6637 14.9757 65.8059 15.2706 65.9902C15.5655 66.1745 15.8182 66.3904 16.0394 66.6378C16.2606 66.8853 16.4396 67.1592 16.5871 67.4488C16.7345 67.7384 16.8451 68.0491 16.9188 68.3703C16.9925 68.6915 17.0294 69.018 17.0294 69.3444V74.5102C17.0294 74.8366 16.9925 75.1578 16.9241 75.479C16.8504 75.8002 16.745 76.1056 16.6029 76.39C16.4607 76.6796 16.2764 76.9482 16.0605 77.1957C15.8446 77.4432 15.5866 77.659 15.297 77.8381C15.0021 78.0171 14.6756 78.1593 14.307 78.2594C13.9384 78.3594 13.5329 78.412 13.0906 78.412H1.50071H1.49544ZM14.2701 69.097C14.2701 68.9443 14.2438 68.7968 14.1911 68.6546C14.1385 68.5124 14.0595 68.3808 13.9595 68.2702C13.8594 68.1544 13.7278 68.0648 13.5751 67.9964C13.4224 67.9279 13.2433 67.8964 13.0432 67.8964H2.72239V75.9319H13.0432C13.2539 75.9319 13.4381 75.895 13.5908 75.8266C13.7435 75.7581 13.8752 75.6633 13.9753 75.5528C14.0753 75.4422 14.149 75.3105 14.1964 75.1684C14.2438 75.0262 14.2701 74.8787 14.2701 74.7313V69.1022V69.097Z" fill="#7896E4"/>
<path d="M27.6921 75.7952C27.5605 75.7109 27.4499 75.6004 27.3656 75.4635C27.2814 75.3265 27.2129 75.1738 27.1708 74.9948C27.1287 74.821 27.1076 74.642 27.1076 74.4577C27.1076 74.2734 27.1287 74.0943 27.1708 73.9206C27.2129 73.7468 27.2814 73.5889 27.3656 73.452C27.4499 73.3151 27.5605 73.2045 27.6921 73.1202C27.8237 73.036 27.9764 72.9938 28.1502 72.9938H37.8392C38.5237 72.9938 39.0819 72.4356 39.0819 71.7511C39.0819 71.0665 38.5237 70.5084 37.8392 70.5084C35.1326 70.5084 28.8821 70.5084 28.1133 70.5084C25.1382 70.5084 24.1693 72.9359 24.1693 74.4998C24.1693 76.0638 25.0592 78.4017 28.1081 78.4017H39.5242C40.2087 78.4017 40.7669 77.8436 40.7669 77.159C40.7669 76.4745 40.2087 75.9163 39.5242 75.9163H28.1502C27.9764 75.9163 27.8237 75.8742 27.6921 75.7899V75.7952Z" fill="#7896E4"/>
<path d="M24.1693 66.6431C24.1693 67.3277 24.7222 67.8858 25.412 67.8858H39.5559C40.2404 67.8858 40.7986 67.3329 40.7986 66.6431C40.7986 65.9586 40.2457 65.4004 39.5559 65.4004H25.412C24.7275 65.4004 24.1693 65.9533 24.1693 66.6431Z" fill="#7896E4"/>
<path d="M63.2198 65.4028C62.4668 65.4028 61.8612 66.0136 61.8612 66.7614V75.7078H60.7818C60.4447 75.7026 59.9971 75.4498 59.8234 75.2603C58.2278 73.512 53.7783 68.657 51.3613 65.9768C51.1665 65.7609 50.5767 65.366 49.7711 65.4028C49.5341 65.4133 49.3024 65.4397 49.0812 65.5134C48.8601 65.5871 48.6653 65.6977 48.4967 65.8451C48.3282 65.9926 48.1913 66.1716 48.0913 66.3928C47.9912 66.6139 47.9386 66.8719 47.9386 67.1668V77.0506C47.9386 77.8036 48.5494 78.4092 49.3024 78.4092C50.0554 78.4092 50.661 77.7984 50.661 77.0506V68.9361L58.7491 77.8194C59.2494 78.2301 59.6127 78.3986 60.0393 78.4039L62.5141 78.4092V78.3881C62.5931 78.3934 62.6721 78.4092 62.7511 78.4092C62.9881 78.4092 63.2198 78.3723 63.4409 78.2986C63.6621 78.2249 63.8569 78.1143 64.0254 77.9669C64.1939 77.8194 64.3308 77.6404 64.4309 77.4192C64.5309 77.198 64.5836 76.94 64.5836 76.6452V66.7614C64.5836 66.0084 63.9728 65.4028 63.2198 65.4028Z" fill="#7896E4"/>
<path d="M71.7235 66.6431C71.7235 65.9586 72.2817 65.4004 72.9662 65.4004H87.1258C87.8103 65.4004 88.3685 65.9586 88.3685 66.6431C88.3685 67.3277 87.8103 67.8858 87.1258 67.8858H81.4072V77.0482C81.4072 77.8012 80.7963 78.4068 80.0486 78.4068C79.2956 78.4068 78.6901 77.7959 78.6901 77.0482V67.8858H72.9662C72.2817 67.8858 71.7235 67.3277 71.7235 66.6431Z" fill="#7896E4"/>
<path d="M109.199 69.0653H109.21L108.351 67.7963L107.314 66.2376C106.94 65.6742 106.572 65.4899 106.208 65.4478C106.098 65.4215 105.977 65.4004 105.85 65.4004H104.866H103.881C103.749 65.4004 103.633 65.4215 103.523 65.4478C103.159 65.4846 102.791 65.6742 102.417 66.2376L101.38 67.7963L100.521 69.0653H100.532L95.74 76.2689C95.1345 77.1851 95.7874 78.4068 96.8827 78.4068C97.3461 78.4068 97.7779 78.1751 98.0307 77.7907L103.828 68.9969C103.849 68.96 103.876 68.9232 103.886 68.9074C104.165 68.4861 104.513 68.2544 104.86 68.2544C105.208 68.2544 105.555 68.4861 105.834 68.9074C105.845 68.9232 105.871 68.96 105.892 68.9916L111.69 77.7907C111.943 78.1751 112.375 78.4068 112.838 78.4068C113.938 78.4068 114.591 77.1851 113.981 76.2689L109.189 69.0653H109.199Z" fill="#7896E4"/>
<path d="M124.072 75.9266H136.757C137.442 75.9266 138 76.4848 138 77.1693C138 77.8539 137.442 78.412 136.757 78.412H122.851C122.629 78.412 122.424 78.3752 122.24 78.3067C122.055 78.233 121.903 78.1329 121.766 78.0013C121.634 77.8696 121.534 77.7117 121.46 77.5274C121.387 77.3431 121.355 77.143 121.355 76.9166V66.7589C121.355 66.0112 121.961 65.4004 122.714 65.4004C123.461 65.4004 124.072 66.0059 124.072 66.7589V75.9213V75.9266Z" fill="#7896E4"/>
<path d="M57.7001 103.002C57.3631 102.997 56.9418 102.718 56.7417 102.555C56.2309 102.144 53.6139 100.117 51.6234 98.5106C53.2979 97.1994 54.7513 96.0726 55.0461 95.8356C55.2462 95.6776 55.6675 95.3933 56.0045 95.388H57.5157C58.2582 95.388 58.8638 94.7825 58.8638 94.04C58.8638 93.2975 58.2582 92.692 57.5157 92.692H55.2621C54.8355 92.7025 54.4722 92.871 53.9719 93.2817L46.5157 98.874V94.0505C46.5157 93.3028 45.9101 92.692 45.1571 92.692C44.4093 92.692 43.7985 93.2975 43.7985 94.0505V104.345C43.7985 105.093 44.4041 105.704 45.1571 105.704C45.9048 105.704 46.5157 105.098 46.5157 104.345V102.565C47.1897 102.012 48.2007 101.207 49.3012 100.338L55.6675 105.114C56.1678 105.525 56.5311 105.693 56.9576 105.698L59.2114 105.704C59.9538 105.704 60.5594 105.098 60.5594 104.356C60.5594 103.613 59.9538 103.008 59.2114 103.008H57.7001V103.002Z" fill="#2145BF"/>
<path d="M69.058 92.692C69.8057 92.692 70.4165 93.3028 70.4165 94.0506V104.34C70.4165 105.088 69.8057 105.698 69.058 105.698C68.3103 105.698 67.6994 105.088 67.6994 104.34V94.0506C67.6994 93.3028 68.3103 92.692 69.058 92.692Z" fill="#2145BF"/>
<path d="M77.5564 93.9347C77.5564 93.2502 78.1145 92.692 78.7991 92.692H92.9587C93.6432 92.692 94.2014 93.2502 94.2014 93.9347C94.2014 94.6193 93.6432 95.1774 92.9587 95.1774H87.2401V104.34C87.2401 105.093 86.6292 105.698 85.8815 105.698C85.1285 105.698 84.5229 105.088 84.5229 104.34V95.1774H78.7991C78.1145 95.1774 77.5564 94.6193 77.5564 93.9347Z" fill="#2145BF"/>
</svg>
