<svg width="155" height="51" viewBox="0 0 155 51" fill="none" xmlns="http://www.w3.org/2000/svg">
<rect y="0.480957" width="154.5" height="50.0135" rx="12.009" fill="#C6D4F1"/>
<path d="M36.0592 24.6102L26.34 14.847L38.6979 21.9715L36.0592 24.6102ZM23.8333 14.2753L35.0917 25.5337L23.8333 36.7921C23.2616 36.5283 22.8657 35.9566 22.8657 35.2529V15.8585C22.8657 15.1549 23.2616 14.5831 23.8333 14.2753ZM42.524 24.2144C43.3596 24.8301 43.3596 26.2813 42.568 26.897L39.9293 28.3923L37.0267 25.5337L39.9293 22.7191L42.524 24.2144ZM26.34 36.2204L36.0592 26.5012L38.6979 29.1399L26.34 36.2204Z" fill="#254EDB"/>
<g clip-path="url(#clip0_390_5754)">
<path d="M55.3899 12.1921C56.0864 12.1921 56.6839 12.3182 57.1823 12.5704C57.6806 12.8226 58.0619 13.1858 58.3261 13.6602C58.5903 14.1345 58.7224 14.699 58.7224 15.3534C58.7224 16.0019 58.5903 16.5634 58.3261 17.0377C58.0619 17.5061 57.6806 17.8663 57.1823 18.1185C56.6839 18.3647 56.0864 18.4878 55.3899 18.4878H53.5255V12.1921H55.3899ZM55.3899 17.9654C56.2666 17.9654 56.9331 17.7372 57.3894 17.2809C57.8518 16.8185 58.0829 16.1761 58.0829 15.3534C58.0829 14.5248 57.8518 13.8793 57.3894 13.417C56.9331 12.9486 56.2666 12.7145 55.3899 12.7145H54.156V17.9654H55.3899ZM62.0374 18.5598C61.575 18.5598 61.1577 18.4578 60.7854 18.2536C60.4192 18.0435 60.128 17.7492 59.9118 17.371C59.7016 16.9867 59.5966 16.5393 59.5966 16.029C59.5966 15.5186 59.7046 15.0742 59.9208 14.696C60.137 14.3117 60.4312 14.0174 60.8035 13.8133C61.1757 13.6031 61.593 13.4981 62.0554 13.4981C62.5177 13.4981 62.9351 13.6031 63.3073 13.8133C63.6856 14.0174 63.9798 14.3117 64.19 14.696C64.4062 15.0742 64.5142 15.5186 64.5142 16.029C64.5142 16.5333 64.4062 16.9777 64.19 17.362C63.9738 17.7462 63.6766 18.0435 63.2983 18.2536C62.92 18.4578 62.4997 18.5598 62.0374 18.5598ZM62.0374 18.0104C62.3616 18.0104 62.6618 17.9384 62.9381 17.7943C63.2143 17.6442 63.4364 17.422 63.6046 17.1278C63.7787 16.8276 63.8657 16.4613 63.8657 16.029C63.8657 15.5966 63.7817 15.2334 63.6136 14.9391C63.4454 14.6389 63.2233 14.4167 62.9471 14.2726C62.6709 14.1225 62.3706 14.0475 62.0464 14.0475C61.7221 14.0475 61.4219 14.1225 61.1457 14.2726C60.8695 14.4167 60.6473 14.6389 60.4792 14.9391C60.3171 15.2334 60.236 15.5966 60.236 16.029C60.236 16.4613 60.3171 16.8276 60.4792 17.1278C60.6473 17.422 60.8665 17.6442 61.1367 17.7943C61.4129 17.9384 61.7131 18.0104 62.0374 18.0104ZM72.1484 13.5701L70.6082 18.4878H69.9777L68.6177 14.3627L67.2577 18.4878H66.6182L65.0781 13.5701H65.7175L66.9425 17.8483L68.3205 13.5701H68.951L70.311 17.8573L71.5269 13.5701H72.1484ZM75.3136 13.48C75.902 13.48 76.3824 13.6632 76.7547 14.0295C77.127 14.3897 77.3131 14.9151 77.3131 15.6056V18.4878H76.6916V15.6777C76.6916 15.1433 76.5565 14.735 76.2863 14.4528C76.0221 14.1706 75.6589 14.0295 75.1965 14.0295C74.7222 14.0295 74.3439 14.1796 74.0617 14.4798C73.7795 14.78 73.6383 15.2213 73.6383 15.8038V18.4878H73.0079V13.5701H73.6383V14.4077C73.7945 14.1075 74.0196 13.8793 74.3139 13.7232C74.6081 13.5611 74.9413 13.48 75.3136 13.48ZM79.3379 11.8228V18.4878H78.7075V11.8228H79.3379ZM82.9182 18.5598C82.4559 18.5598 82.0386 18.4578 81.6663 18.2536C81.3 18.0435 81.0088 17.7492 80.7927 17.371C80.5825 16.9867 80.4774 16.5393 80.4774 16.029C80.4774 15.5186 80.5855 15.0742 80.8017 14.696C81.0178 14.3117 81.312 14.0174 81.6843 13.8133C82.0566 13.6031 82.4739 13.4981 82.9363 13.4981C83.3986 13.4981 83.8159 13.6031 84.1882 13.8133C84.5665 14.0174 84.8607 14.3117 85.0709 14.696C85.287 15.0742 85.3951 15.5186 85.3951 16.029C85.3951 16.5333 85.287 16.9777 85.0709 17.362C84.8547 17.7462 84.5575 18.0435 84.1792 18.2536C83.8009 18.4578 83.3806 18.5598 82.9182 18.5598ZM82.9182 18.0104C83.2425 18.0104 83.5427 17.9384 83.8189 17.7943C84.0951 17.6442 84.3173 17.422 84.4854 17.1278C84.6595 16.8276 84.7466 16.4613 84.7466 16.029C84.7466 15.5966 84.6625 15.2334 84.4944 14.9391C84.3263 14.6389 84.1041 14.4167 83.8279 14.2726C83.5517 14.1225 83.2515 14.0475 82.9273 14.0475C82.603 14.0475 82.3028 14.1225 82.0266 14.2726C81.7504 14.4167 81.5282 14.6389 81.3601 14.9391C81.198 15.2334 81.1169 15.5966 81.1169 16.029C81.1169 16.4613 81.198 16.8276 81.3601 17.1278C81.5282 17.422 81.7474 17.6442 82.0176 17.7943C82.2938 17.9384 82.594 18.0104 82.9182 18.0104ZM86.2562 16.0199C86.2562 15.5156 86.3552 15.0742 86.5534 14.696C86.7575 14.3117 87.0367 14.0174 87.391 13.8133C87.7513 13.6031 88.1566 13.4981 88.6069 13.4981C89.0753 13.4981 89.4776 13.6061 89.8138 13.8223C90.1561 14.0385 90.4023 14.3147 90.5524 14.6509V13.5701H91.1828V18.4878H90.5524V17.398C90.3963 17.7342 90.1471 18.0134 89.8048 18.2356C89.4686 18.4518 89.0663 18.5598 88.5979 18.5598C88.1536 18.5598 87.7513 18.4548 87.391 18.2446C87.0367 18.0345 86.7575 17.7372 86.5534 17.3529C86.3552 16.9687 86.2562 16.5243 86.2562 16.0199ZM90.5524 16.029C90.5524 15.6327 90.4713 15.2844 90.3092 14.9842C90.1471 14.6839 89.9249 14.4528 89.6427 14.2907C89.3665 14.1285 89.0603 14.0475 88.724 14.0475C88.3757 14.0475 88.0635 14.1255 87.7873 14.2816C87.5111 14.4378 87.2919 14.6659 87.1298 14.9662C86.9737 15.2604 86.8956 15.6116 86.8956 16.0199C86.8956 16.4222 86.9737 16.7765 87.1298 17.0827C87.2919 17.383 87.5111 17.6141 87.7873 17.7763C88.0635 17.9324 88.3757 18.0104 88.724 18.0104C89.0603 18.0104 89.3665 17.9294 89.6427 17.7673C89.9249 17.6051 90.1471 17.374 90.3092 17.0737C90.4713 16.7735 90.5524 16.4252 90.5524 16.029ZM92.3339 16.0199C92.3339 15.5156 92.436 15.0742 92.6402 14.696C92.8443 14.3117 93.1235 14.0174 93.4778 13.8133C93.8381 13.6031 94.2434 13.4981 94.6937 13.4981C95.126 13.4981 95.5163 13.6031 95.8646 13.8133C96.2128 14.0235 96.468 14.2967 96.6302 14.6329V11.8228H97.2606V18.4878H96.6302V17.389C96.48 17.7312 96.2339 18.0134 95.8916 18.2356C95.5494 18.4518 95.1471 18.5598 94.6847 18.5598C94.2344 18.5598 93.8291 18.4548 93.4688 18.2446C93.1145 18.0345 92.8353 17.7372 92.6312 17.3529C92.433 16.9687 92.3339 16.5243 92.3339 16.0199ZM96.6302 16.029C96.6302 15.6327 96.5491 15.2844 96.387 14.9842C96.2249 14.6839 96.0027 14.4528 95.7205 14.2907C95.4443 14.1285 95.138 14.0475 94.8018 14.0475C94.4535 14.0475 94.1413 14.1255 93.8651 14.2816C93.5889 14.4378 93.3697 14.6659 93.2076 14.9662C93.0515 15.2604 92.9734 15.6116 92.9734 16.0199C92.9734 16.4222 93.0515 16.7765 93.2076 17.0827C93.3697 17.383 93.5889 17.6141 93.8651 17.7763C94.1413 17.9324 94.4535 18.0104 94.8018 18.0104C95.138 18.0104 95.4443 17.9294 95.7205 17.7673C96.0027 17.6051 96.2249 17.374 96.387 17.0737C96.5491 16.7735 96.6302 16.4252 96.6302 16.029ZM103.477 13.48C104.066 13.48 104.546 13.6632 104.918 14.0295C105.291 14.3897 105.477 14.9151 105.477 15.6056V18.4878H104.855V15.6777C104.855 15.1433 104.72 14.735 104.45 14.4528C104.186 14.1706 103.823 14.0295 103.36 14.0295C102.886 14.0295 102.508 14.1796 102.225 14.4798C101.943 14.78 101.802 15.2213 101.802 15.8038V18.4878H101.172V13.5701H101.802V14.4077C101.958 14.1075 102.183 13.8793 102.478 13.7232C102.772 13.5611 103.105 13.48 103.477 13.48ZM109.024 18.5598C108.561 18.5598 108.144 18.4578 107.772 18.2536C107.406 18.0435 107.114 17.7492 106.898 17.371C106.688 16.9867 106.583 16.5393 106.583 16.029C106.583 15.5186 106.691 15.0742 106.907 14.696C107.123 14.3117 107.418 14.0174 107.79 13.8133C108.162 13.6031 108.579 13.4981 109.042 13.4981C109.504 13.4981 109.921 13.6031 110.294 13.8133C110.672 14.0174 110.966 14.3117 111.176 14.696C111.392 15.0742 111.501 15.5186 111.501 16.029C111.501 16.5333 111.392 16.9777 111.176 17.362C110.96 17.7462 110.663 18.0435 110.285 18.2536C109.906 18.4578 109.486 18.5598 109.024 18.5598ZM109.024 18.0104C109.348 18.0104 109.648 17.9384 109.924 17.7943C110.201 17.6442 110.423 17.422 110.591 17.1278C110.765 16.8276 110.852 16.4613 110.852 16.029C110.852 15.5966 110.768 15.2334 110.6 14.9391C110.432 14.6389 110.21 14.4167 109.933 14.2726C109.657 14.1225 109.357 14.0475 109.033 14.0475C108.708 14.0475 108.408 14.1225 108.132 14.2726C107.856 14.4167 107.634 14.6389 107.466 14.9391C107.303 15.2334 107.222 15.5966 107.222 16.029C107.222 16.4613 107.303 16.8276 107.466 17.1278C107.634 17.422 107.853 17.6442 108.123 17.7943C108.399 17.9384 108.699 18.0104 109.024 18.0104ZM119.135 13.5701L117.595 18.4878H116.964L115.604 14.3627L114.244 18.4878H113.605L112.064 13.5701H112.704L113.929 17.8483L115.307 13.5701H115.937L117.297 17.8573L118.513 13.5701H119.135Z" fill="#254EDB"/>
<path d="M60.174 29.8273C60.174 30.6109 59.9038 31.2639 59.3633 31.7863C58.8319 32.2997 58.0168 32.5564 56.918 32.5564H55.1077V36.4878H53.8782V27.0712H56.918C57.9808 27.0712 58.7869 27.3279 59.3363 27.8413C59.8947 28.3547 60.174 29.0167 60.174 29.8273ZM56.918 31.5431C57.6025 31.5431 58.1069 31.3945 58.4311 31.0973C58.7554 30.8 58.9175 30.3767 58.9175 29.8273C58.9175 28.6654 58.251 28.0845 56.918 28.0845H55.1077V31.5431H56.918ZM62.9314 26.4903V36.4878H61.702V26.4903H62.9314ZM64.5674 32.759C64.5674 32.0024 64.7205 31.3404 65.0267 30.773C65.333 30.1966 65.7518 29.7508 66.2832 29.4355C66.8236 29.1203 67.4225 28.9627 68.08 28.9627C68.7285 28.9627 69.2914 29.1023 69.7688 29.3815C70.2461 29.6607 70.6019 30.0119 70.8361 30.4353V29.0843H72.079V36.4878H70.8361V35.1098C70.5929 35.5421 70.2281 35.9024 69.7418 36.1906C69.2644 36.4698 68.706 36.6094 68.0665 36.6094C67.409 36.6094 66.8146 36.4473 66.2832 36.123C65.7518 35.7988 65.333 35.3439 65.0267 34.7585C64.7205 34.1731 64.5674 33.5066 64.5674 32.759ZM70.8361 32.7725C70.8361 32.2141 70.7235 31.7277 70.4983 31.3134C70.2731 30.8991 69.9669 30.5839 69.5796 30.3677C69.2013 30.1425 68.7825 30.03 68.3232 30.03C67.8638 30.03 67.445 30.138 67.0667 30.3542C66.6885 30.5704 66.3867 30.8856 66.1616 31.2999C65.9364 31.7142 65.8238 32.2006 65.8238 32.759C65.8238 33.3264 65.9364 33.8218 66.1616 34.2451C66.3867 34.6594 66.6885 34.9792 67.0667 35.2043C67.445 35.4205 67.8638 35.5286 68.3232 35.5286C68.7825 35.5286 69.2013 35.4205 69.5796 35.2043C69.9669 34.9792 70.2731 34.6594 70.4983 34.2451C70.7235 33.8218 70.8361 33.3309 70.8361 32.7725ZM80.5334 29.0843L76.075 39.9734H74.8051L76.2642 36.4067L73.2784 29.0843H74.643L76.9667 35.0827L79.2634 29.0843H80.5334ZM88.3568 36.5824C87.7353 36.5824 87.1769 36.4743 86.6815 36.2581C86.1952 36.033 85.8124 35.7267 85.5332 35.3394C85.254 34.9431 85.1099 34.4883 85.1008 33.9749H86.4113C86.4564 34.4162 86.6365 34.79 86.9517 35.0963C87.276 35.3935 87.7443 35.5421 88.3568 35.5421C88.9422 35.5421 89.4016 35.398 89.7348 35.1098C90.0771 34.8125 90.2482 34.4343 90.2482 33.9749C90.2482 33.6146 90.1491 33.3219 89.951 33.0968C89.7528 32.8716 89.5051 32.7005 89.2079 32.5834C88.9107 32.4663 88.5099 32.3402 88.0055 32.2051C87.3841 32.043 86.8842 31.8808 86.5059 31.7187C86.1366 31.5566 85.8169 31.3044 85.5467 30.9622C85.2855 30.6109 85.1549 30.1425 85.1549 29.5571C85.1549 29.0437 85.2855 28.5889 85.5467 28.1926C85.8079 27.7963 86.1727 27.4901 86.641 27.2739C87.1184 27.0577 87.6633 26.9497 88.2757 26.9497C89.1584 26.9497 89.8789 27.1703 90.4373 27.6116C91.0048 28.053 91.3245 28.6384 91.3966 29.368H90.0455C90.0005 29.0077 89.8114 28.6925 89.4781 28.4223C89.1449 28.143 88.7035 28.0034 88.1541 28.0034C87.6407 28.0034 87.2219 28.1385 86.8977 28.4087C86.5735 28.6699 86.4113 29.0392 86.4113 29.5166C86.4113 29.8588 86.5059 30.138 86.695 30.3542C86.8932 30.5704 87.1319 30.737 87.4111 30.8541C87.6993 30.9622 88.1001 31.0883 88.6135 31.2324C89.2349 31.4035 89.7348 31.5746 90.1131 31.7457C90.4914 31.9079 90.8156 32.1646 91.0858 32.5158C91.356 32.8581 91.4911 33.3264 91.4911 33.9209C91.4911 34.3802 91.3695 34.8125 91.1264 35.2178C90.8832 35.6231 90.5229 35.9519 90.0455 36.2041C89.5682 36.4563 89.0053 36.5824 88.3568 36.5824ZM94.7999 30.0975V34.4613C94.7999 34.8215 94.8765 35.0782 95.0296 35.2314C95.1827 35.3755 95.4484 35.4475 95.8267 35.4475H96.7319V36.4878H95.6241C94.9396 36.4878 94.4262 36.3302 94.0839 36.0149C93.7417 35.6997 93.5705 35.1818 93.5705 34.4613V30.0975H92.6113V29.0843H93.5705V27.2199H94.7999V29.0843H96.7319V30.0975H94.7999ZM101.45 36.6094C100.757 36.6094 100.126 36.4518 99.559 36.1365C99.0006 35.8213 98.5592 35.3755 98.235 34.799C97.9198 34.2136 97.7621 33.5381 97.7621 32.7725C97.7621 32.0159 97.9243 31.3494 98.2485 30.773C98.5818 30.1876 99.0321 29.7417 99.5995 29.4355C100.167 29.1203 100.802 28.9627 101.504 28.9627C102.207 28.9627 102.842 29.1203 103.409 29.4355C103.977 29.7417 104.423 30.1831 104.747 30.7595C105.08 31.3359 105.247 32.0069 105.247 32.7725C105.247 33.5381 105.076 34.2136 104.733 34.799C104.4 35.3755 103.945 35.8213 103.369 36.1365C102.792 36.4518 102.153 36.6094 101.45 36.6094ZM101.45 35.5286C101.892 35.5286 102.306 35.425 102.693 35.2178C103.081 35.0107 103.391 34.7 103.626 34.2856C103.869 33.8713 103.99 33.367 103.99 32.7725C103.99 32.1781 103.873 31.6737 103.639 31.2594C103.405 30.8451 103.099 30.5388 102.72 30.3407C102.342 30.1335 101.932 30.03 101.491 30.03C101.041 30.03 100.626 30.1335 100.248 30.3407C99.8787 30.5388 99.5815 30.8451 99.3563 31.2594C99.1312 31.6737 99.0186 32.1781 99.0186 32.7725C99.0186 33.376 99.1267 33.8848 99.3428 34.2992C99.568 34.7135 99.8652 35.0242 100.234 35.2314C100.604 35.4295 101.009 35.5286 101.45 35.5286ZM108.093 30.2867C108.309 29.8633 108.615 29.5346 109.011 29.3004C109.417 29.0662 109.907 28.9492 110.484 28.9492V30.2191H110.16C108.782 30.2191 108.093 30.9667 108.093 32.4618V36.4878H106.863V29.0843H108.093V30.2867ZM118.658 32.5023C118.658 32.7365 118.645 32.9842 118.618 33.2454H112.7C112.745 33.9749 112.993 34.5468 113.443 34.9612C113.903 35.3665 114.457 35.5691 115.105 35.5691C115.636 35.5691 116.078 35.4475 116.429 35.2043C116.789 34.9521 117.041 34.6189 117.186 34.2046H118.51C118.311 34.9161 117.915 35.4971 117.321 35.9474C116.726 36.3887 115.988 36.6094 115.105 36.6094C114.402 36.6094 113.772 36.4518 113.214 36.1365C112.664 35.8213 112.232 35.3755 111.917 34.799C111.601 34.2136 111.444 33.5381 111.444 32.7725C111.444 32.0069 111.597 31.3359 111.903 30.7595C112.209 30.1831 112.637 29.7417 113.187 29.4355C113.745 29.1203 114.384 28.9627 115.105 28.9627C115.808 28.9627 116.429 29.1158 116.969 29.422C117.51 29.7282 117.924 30.1516 118.212 30.692C118.51 31.2234 118.658 31.8268 118.658 32.5023ZM117.388 32.2456C117.388 31.7773 117.285 31.3765 117.077 31.0432C116.87 30.701 116.587 30.4443 116.226 30.2731C115.875 30.093 115.483 30.0029 115.051 30.0029C114.43 30.0029 113.898 30.2011 113.457 30.5974C113.024 30.9937 112.777 31.5431 112.714 32.2456H117.388Z" fill="#254EDB"/>
</g>
<defs>
<clipPath id="clip0_390_5754">
<rect width="66.8" height="32" fill="white" transform="translate(52.5393 9.48779)"/>
</clipPath>
</defs>
</svg>
